<?xml version="1.0" encoding="UTF-8" standalone="no"?>
<svg width="20px" height="20px" viewBox="0 0 20 20" version="1.1" xmlns="http://www.w3.org/2000/svg" xmlns:xlink="http://www.w3.org/1999/xlink" xmlns:sketch="http://www.bohemiancoding.com/sketch/ns">
    <!-- Generator: Sketch 3.3.3 (12081) - http://www.bohemiancoding.com/sketch -->
    <title>ic_videoplayer_volume_off_web</title>
    <desc>Created with Sketch.</desc>
    <defs></defs>
    <g id="spelare" stroke="none" stroke-width="1" fill="none" fill-rule="evenodd" sketch:type="MSPage">
        <g id="ic_videoplayer_volume_off_web" sketch:type="MSArtboardGroup">
            <g id="ic_volume_off_white_20px" sketch:type="MSLayerGroup">
                <path d="M13.75,10 C13.75,8.525 12.9,7.25833333 11.6666667,6.64166667 L11.6666667,8.48333333 L13.7083333,10.525 C13.7333333,10.3583333 13.75,10.1833333 13.75,10 L13.75,10 Z M15.8333333,10 C15.8333333,10.7833333 15.6666667,11.5166667 15.3833333,12.2 L16.6416667,13.4583333 C17.1916667,12.425 17.5,11.25 17.5,10 C17.5,6.43333333 15.0083333,3.45 11.6666667,2.69166667 L11.6666667,4.40833333 C14.075,5.125 15.8333333,7.35833333 15.8333333,10 L15.8333333,10 Z M3.55833333,2.5 L2.5,3.55833333 L6.44166667,7.5 L2.5,7.5 L2.5,12.5 L5.83333333,12.5 L10,16.6666667 L10,11.0583333 L13.5416667,14.6 C12.9833333,15.0333333 12.3583333,15.375 11.6666667,15.5833333 L11.6666667,17.3 C12.8166667,17.0416667 13.8583333,16.5083333 14.7416667,15.7916667 L16.4416667,17.5 L17.5,16.4416667 L10,8.94166667 L3.55833333,2.5 L3.55833333,2.5 Z M10,3.33333333 L8.25833333,5.075 L10,6.81666667 L10,3.33333333 L10,3.33333333 Z" id="Shape" fill="#FFFFFF" sketch:type="MSShapeGroup"></path>
                <path d="M0,0 L20,0 L20,20 L0,20 L0,0 Z" id="bounds" sketch:type="MSShapeGroup"></path>
            </g>
        </g>
    </g>
</svg>