<svg xmlns="http://www.w3.org/2000/svg" width="144" height="144" viewBox="0 0 144 144">
  <path fill="#FFF" fill-rule="evenodd" d="M40.1,42.125 L22.275,31.75 C22.4,31.175 22.5,30.6 22.5,30 C22.5,29.4 22.4,28.825 22.275,28.25 L39.9,17.975 C41.25,19.225 43.025,20 45,20 C49.15,20 52.5,16.65 52.5,12.5 C52.5,8.35 49.15,5 45,5 C40.85,5 37.5,8.35 37.5,12.5 C37.5,13.1 37.6,13.675 37.725,14.25 L20.1,24.525 C18.75,23.275 16.975,22.5 15,22.5 C10.85,22.5 7.5,25.85 7.5,30 C7.5,34.15 10.85,37.5 15,37.5 C16.975,37.5 18.75,36.725 20.1,35.475 L37.9,45.875 C37.775,46.4 37.7,46.95 37.7,47.5 C37.7,51.525 40.975,54.8 45,54.8 C49.025,54.8 52.3,51.525 52.3,47.5 C52.3,43.475 49.025,40.2 45,40.2 C43.1,40.2 41.4,40.95 40.1,42.125 Z" transform="translate(42 42)"/>
</svg>
