<?xml version="1.0" encoding="UTF-8" standalone="no"?>
<svg width="20px" height="20px" viewBox="0 0 20 20" version="1.1" xmlns="http://www.w3.org/2000/svg" xmlns:xlink="http://www.w3.org/1999/xlink" xmlns:sketch="http://www.bohemiancoding.com/sketch/ns">
    <!-- Generator: Sketch 3.3.3 (12081) - http://www.bohemiancoding.com/sketch -->
    <title>ic_videoplayer_volume_up_web</title>
    <desc>Created with Sketch.</desc>
    <defs></defs>
    <g id="spelare" stroke="none" stroke-width="1" fill="none" fill-rule="evenodd" sketch:type="MSPage">
        <g id="ic_videoplayer_volume_up_web" sketch:type="MSArtboardGroup">
            <g id="ic_volume_up_white_20px" sketch:type="MSLayerGroup">
                <path d="M2.5,7.30833333 L2.5,12.3083333 L5.83333333,12.3083333 L10,16.475 L10,3.14166667 L5.83333333,7.30833333 L2.5,7.30833333 L2.5,7.30833333 Z M13.75,9.80833333 C13.75,8.33333333 12.9,7.06666667 11.6666667,6.45 L11.6666667,13.1583333 C12.9,12.55 13.75,11.2833333 13.75,9.80833333 L13.75,9.80833333 Z M11.6666667,2.5 L11.6666667,4.21666667 C14.075,4.93333333 15.8333333,7.16666667 15.8333333,9.80833333 C15.8333333,12.45 14.075,14.6833333 11.6666667,15.4 L11.6666667,17.1166667 C15.0083333,16.3583333 17.5,13.375 17.5,9.80833333 C17.5,6.24166667 15.0083333,3.25833333 11.6666667,2.5 L11.6666667,2.5 Z" id="Shape" fill="#FFFFFF" sketch:type="MSShapeGroup"></path>
                <path d="M0,0 L20,0 L20,20 L0,20 L0,0 Z" id="bounds" sketch:type="MSShapeGroup"></path>
            </g>
        </g>
    </g>
</svg>