<svg xmlns="http://www.w3.org/2000/svg" width="144" height="144" viewBox="0 0 144 144">
  <g fill="none" fill-rule="evenodd" transform="translate(36 36)">
    <path fill="#FFF" fill-rule="nonzero" d="M9.6,26.9676131 L9.6,45.0287747 L21.5988,45.0287747 L36.6,60.0809468 L36.6,11.9190532 L21.5988,26.9676131 L9.6,26.9676131 L9.6,26.9676131 Z M50.1,35.9981939 C50.1,30.6701512 47.04,26.0970651 42.5976,23.8683177 L42.5976,48.0991722 C47.04,45.9029349 50.1,41.3262366 50.1,35.9981939 L50.1,35.9981939 Z M42.5976,9.6 L42.5976,15.8022029 C51.27,18.3885613 57.6024,26.4582883 57.6024,35.9981939 C57.6024,45.5417117 51.27,53.6078265 42.5976,56.1977971 L42.5976,62.4 C54.6288,59.6583157 63.6,48.8830266 63.6,35.9981939 C63.6,23.1169734 54.6288,12.3380721 42.5976,9.6 L42.5976,9.6 Z"/>
    <polygon points="0 0 72 0 72 72 0 72"/>
  </g>
</svg>
