<svg xmlns="http://www.w3.org/2000/svg" width="144" height="144" viewBox="0 0 144 144">
  <g fill="none" fill-rule="evenodd" transform="translate(39 39)">
    <path fill="#FFF" fill-rule="nonzero" d="M45.375,33 C45.375,28.1325 42.57,23.9514 38.4978,21.9186 L38.4978,27.9972 L45.2397,34.7358 C45.3189,34.1814 45.375,33.6039 45.375,33 L45.375,33 Z M52.2522,33 C52.2522,35.5839 51.6978,38.0061 50.7639,40.26 L54.9186,44.4147 C56.7303,41.0025 57.75,37.125 57.75,33 C57.75,21.2289 49.5264,11.385 38.4978,8.8836 L38.4978,14.5464 C46.4475,16.9125 52.2522,24.2814 52.2522,33 L52.2522,33 Z M11.7414,8.25 L8.25,11.7414 L21.2586,24.75 L8.25,24.75 L8.25,41.25 L19.2489,41.25 L33,54.9978 L33,36.4947 L44.6853,48.18 C42.8439,49.6122 40.7814,50.7375 38.4978,51.4272 L38.4978,57.09 C42.2928,56.2353 45.7314,54.4764 48.6486,52.1103 L54.2553,57.75 L57.75,54.2553 L33,29.5053 L11.7414,8.25 L11.7414,8.25 Z M33,10.9989 L27.2514,16.7475 L33,22.4961 L33,10.9989 L33,10.9989 Z"/>
    <polygon points="0 0 66 0 66 66 0 66"/>
  </g>
</svg>
